<svg width="240" height="107" viewBox="0 0 240 107" fill="none" xmlns="http://www.w3.org/2000/svg">
<path d="M0 106.311C1.44263 104.745 2.9677 103.221 4.36912 101.573C17.7238 86.328 31.0922 71.0696 44.4743 55.7975C44.8612 55.4632 45.1184 55.0038 45.2013 54.4993C45.2841 53.9949 45.1873 53.4774 44.9277 53.0369C40.6685 43.2859 36.4643 33.4936 32.315 23.6601C31.367 21.4352 31.367 21.4352 33.7988 21.4352C41.4242 21.4352 49.0495 21.4352 56.7161 21.4352C57.275 21.3556 57.8437 21.4836 58.3146 21.7949C58.7856 22.1062 59.126 22.5792 59.2716 23.1244C60.4669 26.2558 61.8683 29.3459 63.1461 32.4773C63.6407 33.6309 63.8468 33.6721 64.6712 32.7657L80.5813 14.5545C80.84 14.2038 81.184 13.925 81.5808 13.7448C81.9776 13.5645 82.4139 13.4886 82.8483 13.5244H91.5866H92.8643C92.7155 13.8522 92.5213 14.1573 92.2873 14.4309C81.1034 27.2309 69.9059 40.0309 58.6945 52.8309L17.4765 99.8422C15.7041 101.861 13.9317 103.962 12.2006 105.94C11.9555 106.233 11.6449 106.463 11.294 106.614C10.9432 106.764 10.5618 106.83 10.1809 106.805H1.15411C0.770535 106.842 0.385176 106.855 0 106.847L0 106.311Z" fill="#F3EFF5"/>
<path d="M191.596 68.9791C192.915 66.7542 194.234 64.8589 195.306 62.6752C195.592 61.9143 196.138 61.2785 196.846 60.8792C197.554 60.4799 198.381 60.3426 199.18 60.4915C202.231 60.7799 202.231 60.4915 201.654 57.6486C201.241 55.5885 200.912 53.5284 200.499 51.5095C200.352 51.1809 200.158 50.8756 199.922 50.6031C199.675 50.8503 199.304 51.0151 199.098 51.3035C194.399 58.8022 189.659 66.301 185.125 73.8409C184.948 74.1702 184.677 74.4398 184.347 74.6158C184.017 74.7917 183.643 74.8662 183.27 74.8297H158.004C156.726 74.8297 156.685 74.8297 157.014 73.5937C157.715 70.9567 158.333 68.3198 158.993 65.6829C159.941 61.8924 157.468 59.8735 153.964 59.7911C153.016 59.7911 152.109 59.7911 151.203 59.7911C150.296 59.7911 150.131 59.7911 150.378 58.761C151.161 56.2889 151.903 53.7756 152.604 51.3035C152.851 50.4795 153.387 50.3971 154.129 50.3558C156.272 50.3558 158.251 50.3558 160.518 49.985C161.338 49.9014 162.114 49.5741 162.745 49.0453C163.377 48.5165 163.836 47.8105 164.063 47.0185C164.308 46.5445 164.433 46.0175 164.427 45.4838C164.421 44.9501 164.283 44.4261 164.027 43.958C163.77 43.4899 163.403 43.0921 162.956 42.7995C162.509 42.5069 161.998 42.3286 161.466 42.2803C160.596 42.1165 159.713 42.0337 158.828 42.0331C156.849 42.0331 154.706 42.0331 152.851 42.0331C152.607 41.9921 152.358 42.0004 152.117 42.0573C151.876 42.1142 151.649 42.2187 151.45 42.3646C151.25 42.5105 151.081 42.6948 150.954 42.9068C150.827 43.1187 150.743 43.354 150.708 43.5988C149.554 48.131 148.359 52.6632 147.122 57.1542C145.679 62.634 144.154 68.1138 142.712 73.6349C142.506 74.4589 142.135 74.7061 141.269 74.7061H130.47C129.563 74.7061 129.275 74.7061 129.522 73.5937L136.158 48.8726C136.375 48.1825 136.554 47.481 136.694 46.7713C138.027 42.6807 140.187 38.908 143.041 35.688C143.722 34.458 144.76 33.4641 146.019 32.8386C147.278 32.213 148.698 31.9853 150.09 32.1859C156.025 32.5567 162.002 32.1858 167.937 32.5155C169.777 32.6004 171.602 32.8906 173.378 33.3807C174.931 33.671 176.322 34.5267 177.281 35.7823C178.241 37.0379 178.7 38.6044 178.571 40.179C178.766 42.9077 178.129 45.6312 176.746 47.9918C175.363 50.3523 173.298 52.2393 170.822 53.4048C170.204 53.7344 169.503 54.0228 168.885 54.3936C168.267 54.7644 168.308 55.2177 168.885 55.6297C169.656 55.8373 170.375 56.2037 170.996 56.7053C171.617 57.207 172.126 57.8329 172.491 58.5428C172.856 59.2528 173.068 60.0311 173.114 60.8279C173.161 61.6246 173.04 62.4223 172.76 63.1696C172.224 65.6829 171.358 68.155 170.699 70.7095C170.479 71.4722 170.381 72.2649 170.41 73.058C170.494 73.48 170.677 73.8757 170.946 74.2117C171.235 73.9645 171.688 73.7997 171.853 73.4701C174.285 69.3499 176.634 65.5181 179.066 61.5627C184.795 52.0863 190.525 42.5687 196.295 33.1335C196.451 32.9115 196.653 32.7264 196.888 32.5912C197.123 32.4559 197.385 32.3738 197.655 32.3507H210.021C210.763 32.3507 211.092 32.5979 211.216 33.3807L214.555 52.6632C215.626 58.8022 216.698 65.0237 217.811 71.1216C217.811 72.0692 218.1 73.0168 218.306 73.9233C218.512 74.8297 218.306 74.8709 217.564 74.8709H205.198C204.992 74.8042 204.803 74.6917 204.646 74.5419C204.489 74.3921 204.368 74.2088 204.291 74.0057C204.06 72.9196 203.908 71.8179 203.838 70.7095C203.838 69.5559 203.261 69.1439 202.189 69.1439H192.998L191.596 68.9791Z" fill="#72B01D"/>
<path d="M29.2958 92.7129L29.9553 91.724L64.7021 52.1291L88.7322 24.6887C95.492 16.9427 102.293 9.1968 109.012 1.45086C109.37 0.966672 109.845 0.580727 110.393 0.328676C110.941 0.0766247 111.543 -0.0333927 112.144 0.0087987C114.741 0.0087987 117.296 0.0087987 119.893 0.0087987H121.336L119.563 2.11008L97.759 27.0784C93.8845 31.4458 90.0924 35.8544 86.2591 40.2218C86.0178 40.441 85.8579 40.7355 85.8055 41.0573C85.7531 41.379 85.8113 41.709 85.9706 41.9934L98.336 70.8347C98.7894 71.8647 98.6658 72.0708 97.5941 72.0708H73.2755C72.9348 72.0764 72.6016 71.9708 72.3264 71.77C72.0512 71.5693 71.849 71.2843 71.7504 70.9583C70.6375 68.2802 69.4422 65.6021 68.2881 62.718C67.7934 61.5643 67.2988 61.5231 66.4745 62.4707L51.0589 80.3523L41.5375 91.4356C41.2506 91.8122 40.8741 92.1112 40.4422 92.3055C40.0103 92.4997 39.5367 92.5831 39.0645 92.5481C36.3028 92.5481 33.5 92.5481 30.8208 92.5481L29.2958 92.7129Z" fill="#72B01D"/>
<path d="M104.008 74.294C104.503 72.5223 104.997 70.7507 105.451 68.979C107.539 61.5901 109.614 54.215 111.674 46.8536C111.922 46.0296 112.128 45.2055 112.375 44.3815C112.623 43.5575 112.375 42.7334 111.056 42.7334H101.164H100.257L103.307 39.2313C105.08 37.2124 106.811 35.1111 108.666 33.257C109.129 32.7656 109.763 32.4707 110.438 32.433H141.269H142.382C142.307 32.6748 142.211 32.9093 142.093 33.1334L135.663 41.7858C135.476 42.094 135.208 42.3452 134.889 42.5122C134.569 42.6792 134.21 42.7557 133.85 42.7334H127.42C127.219 42.7045 127.015 42.7158 126.819 42.7666C126.623 42.8175 126.439 42.9069 126.278 43.0296C126.116 43.1524 125.981 43.306 125.88 43.4815C125.779 43.657 125.714 43.8509 125.689 44.0519C123.009 53.8579 120.33 63.7052 117.445 73.5524C117.445 73.9232 116.786 74.5 116.456 74.5C112.334 74.5 108.212 74.5 104.338 74.5C104.221 74.4426 104.111 74.3736 104.008 74.294Z" fill="#72B01D"/>
<path d="M73.6339 95.7902H77.0884C77.0191 96.922 76.7072 97.9268 76.1526 98.8045C75.6057 99.6823 74.8393 100.368 73.8534 100.86C72.8752 101.353 71.6967 101.599 70.318 101.599C69.2396 101.599 68.273 101.415 67.418 101.045C66.563 100.668 65.8313 100.129 65.2228 99.4282C64.622 98.7275 64.1637 97.8806 63.8479 96.8874C63.5321 95.8941 63.3742 94.7816 63.3742 93.5497V92.3832C63.3742 91.1513 63.536 90.0387 63.8595 89.0455C64.1907 88.0446 64.6605 87.1938 65.269 86.4932C65.8852 85.7925 66.6208 85.2535 67.4758 84.8763C68.3307 84.499 69.2858 84.3104 70.3411 84.3104C71.7429 84.3104 72.9253 84.5644 73.8881 85.0726C74.8586 85.5808 75.6096 86.2814 76.141 87.1745C76.6802 88.0677 77.0037 89.084 77.1116 90.2235H73.6454C73.6069 89.546 73.4721 88.9724 73.2411 88.5027C73.01 88.0253 72.6595 87.6673 72.1897 87.4286C71.7275 87.1822 71.1113 87.0591 70.3411 87.0591C69.7634 87.0591 69.2589 87.1669 68.8276 87.3824C68.3962 87.598 68.0342 87.9252 67.7415 88.3641C67.4488 88.803 67.2293 89.3573 67.0829 90.0272C66.9443 90.6893 66.875 91.467 66.875 92.3601V93.5497C66.875 94.4197 66.9404 95.1858 67.0714 95.8479C67.2023 96.5024 67.4026 97.0568 67.6722 97.511C67.9495 97.9576 68.3038 98.2964 68.7351 98.5273C69.1742 98.7506 69.7018 98.8623 70.318 98.8623C71.042 98.8623 71.639 98.7468 72.1088 98.5158C72.5787 98.2848 72.9368 97.9422 73.1833 97.4879C73.4375 97.0337 73.5877 96.4678 73.6339 95.7902Z" fill="white"/>
<path d="M86.2043 87.4286L81.629 101.368H77.9434L84.194 84.5529H86.5394L86.2043 87.4286ZM90.0055 101.368L85.4187 87.4286L85.0489 84.5529H87.4174L93.7027 101.368H90.0055ZM89.7975 95.1088V97.8229H80.9127V95.1088H89.7975Z" fill="white"/>
<path d="M95.2624 84.5529H101.536C102.822 84.5529 103.928 84.7454 104.852 85.1304C105.784 85.5153 106.5 86.0851 107.001 86.8396C107.502 87.5942 107.752 88.5219 107.752 89.623C107.752 90.5238 107.598 91.2976 107.29 91.9443C106.989 92.5834 106.562 93.1185 106.007 93.5497C105.46 93.9731 104.817 94.3119 104.078 94.566L102.98 95.1435H97.5269L97.5038 92.441H101.559C102.168 92.441 102.672 92.3332 103.073 92.1176C103.473 91.902 103.774 91.6017 103.974 91.2167C104.182 90.8318 104.286 90.3852 104.286 89.877C104.286 89.3381 104.186 88.8723 103.985 88.4796C103.785 88.0869 103.481 87.7867 103.073 87.5788C102.664 87.3709 102.152 87.2669 101.536 87.2669H98.7285V101.368H95.2624V84.5529ZM104.667 101.368L100.831 93.873L104.494 93.8499L108.376 101.207V101.368H104.667Z" fill="white"/>
<path d="M119.179 96.9682C119.179 96.6679 119.132 96.3985 119.04 96.1598C118.955 95.9134 118.793 95.6901 118.555 95.4899C118.316 95.282 117.981 95.078 117.549 94.8778C117.118 94.6776 116.56 94.4698 115.874 94.2542C115.112 94.0078 114.388 93.7306 113.702 93.4226C113.024 93.1147 112.424 92.7566 111.9 92.3486C111.384 91.9328 110.975 91.4516 110.675 90.9049C110.382 90.3583 110.236 89.7231 110.236 88.9993C110.236 88.2987 110.39 87.6635 110.698 87.0937C111.006 86.5162 111.438 86.0235 111.992 85.6154C112.547 85.1996 113.201 84.8801 113.956 84.6568C114.719 84.4336 115.555 84.3219 116.463 84.3219C117.704 84.3219 118.786 84.5452 119.71 84.9918C120.634 85.4383 121.351 86.0504 121.859 86.8281C122.375 87.6057 122.633 88.495 122.633 89.4959H119.19C119.19 89.0032 119.086 88.572 118.878 88.2024C118.678 87.8252 118.37 87.5287 117.954 87.3131C117.546 87.0976 117.03 86.9898 116.406 86.9898C115.805 86.9898 115.304 87.0822 114.904 87.2669C114.503 87.444 114.203 87.6866 114.003 87.9945C113.802 88.2948 113.702 88.6336 113.702 89.0109C113.702 89.2957 113.771 89.5537 113.91 89.7847C114.056 90.0156 114.272 90.2312 114.557 90.4314C114.842 90.6316 115.193 90.8202 115.608 90.9973C116.024 91.1744 116.506 91.3476 117.053 91.517C117.969 91.7942 118.774 92.106 119.467 92.4525C120.168 92.799 120.754 93.1878 121.224 93.619C121.693 94.0501 122.048 94.539 122.287 95.0857C122.525 95.6324 122.645 96.2522 122.645 96.9451C122.645 97.6766 122.502 98.331 122.217 98.9085C121.932 99.4859 121.52 99.9748 120.981 100.375C120.442 100.776 119.799 101.08 119.051 101.288C118.304 101.495 117.469 101.599 116.544 101.599C115.712 101.599 114.892 101.492 114.083 101.276C113.275 101.053 112.539 100.718 111.877 100.271C111.222 99.8247 110.698 99.2549 110.305 98.562C109.912 97.869 109.716 97.0491 109.716 96.102H113.194C113.194 96.6256 113.275 97.0683 113.436 97.4302C113.598 97.7921 113.825 98.0846 114.118 98.3079C114.418 98.5312 114.773 98.6929 115.181 98.793C115.597 98.8931 116.051 98.9431 116.544 98.9431C117.145 98.9431 117.638 98.8584 118.023 98.689C118.416 98.5197 118.705 98.2848 118.89 97.9845C119.082 97.6843 119.179 97.3455 119.179 96.9682Z" fill="white"/>
<path d="M134.855 97.5572L137.985 86.9551H138.965L138.173 90.1031L134.835 101.368H133.895L134.855 97.5572ZM131.221 86.9551L133.855 97.4582L134.647 101.368H133.667L129.973 86.9551H131.221ZM143.184 97.4582L145.778 86.9551H147.026L143.342 101.368H142.362L143.184 97.4582ZM139.074 86.9551L142.164 97.5572L143.115 101.368H142.174L138.906 90.1031L138.104 86.9551H139.074Z" fill="white"/>
<path d="M160.029 93.3896V94.9339C160.029 95.9436 159.897 96.8577 159.633 97.676C159.376 98.4878 158.999 99.184 158.504 99.7648C158.015 100.346 157.428 100.791 156.741 101.101C156.055 101.411 155.282 101.566 154.424 101.566C153.585 101.566 152.82 101.411 152.126 101.101C151.44 100.791 150.849 100.346 150.354 99.7648C149.859 99.184 149.476 98.4878 149.205 97.676C148.934 96.8577 148.799 95.9436 148.799 94.9339V93.3896C148.799 92.3799 148.931 91.4692 149.195 90.6574C149.466 89.8391 149.849 89.1396 150.344 88.5588C150.839 87.978 151.43 87.5326 152.117 87.2224C152.803 86.9122 153.566 86.7571 154.404 86.7571C155.262 86.7571 156.035 86.9122 156.721 87.2224C157.408 87.5326 157.999 87.978 158.494 88.5588C158.989 89.1396 159.369 89.8391 159.633 90.6574C159.897 91.4692 160.029 92.3799 160.029 93.3896ZM158.821 94.9339V93.3698C158.821 92.5185 158.722 91.753 158.524 91.0732C158.332 90.3935 158.045 89.8127 157.662 89.3309C157.286 88.8492 156.824 88.4796 156.276 88.2222C155.728 87.9648 155.104 87.8361 154.404 87.8361C153.724 87.8361 153.113 87.9648 152.572 88.2222C152.031 88.4796 151.569 88.8492 151.186 89.3309C150.809 89.8127 150.519 90.3935 150.314 91.0732C150.116 91.753 150.017 92.5185 150.017 93.3698V94.9339C150.017 95.7919 150.116 96.564 150.314 97.2503C150.519 97.9301 150.813 98.5142 151.196 99.0025C151.578 99.4843 152.041 99.8539 152.582 100.111C153.13 100.369 153.744 100.497 154.424 100.497C155.13 100.497 155.754 100.369 156.296 100.111C156.837 99.8539 157.296 99.4843 157.672 99.0025C158.048 98.5142 158.332 97.9301 158.524 97.2503C158.722 96.564 158.821 95.7919 158.821 94.9339Z" fill="white"/>
<path d="M163.079 86.9551H167.764C168.76 86.9551 169.625 87.1168 170.358 87.4402C171.091 87.7636 171.655 88.242 172.052 88.8756C172.454 89.5025 172.656 90.2747 172.656 91.192C172.656 91.8717 172.51 92.4888 172.22 93.0432C171.936 93.5975 171.543 94.0628 171.041 94.439C170.54 94.8085 169.959 95.0626 169.298 95.2012L168.873 95.3596H163.872L163.852 94.3202H168.041C168.793 94.3202 169.421 94.175 169.922 93.8846C170.424 93.5942 170.8 93.2114 171.051 92.7363C171.309 92.2545 171.438 91.7398 171.438 91.192C171.438 90.5386 171.296 89.9744 171.012 89.4992C170.734 89.0175 170.322 88.6479 169.774 88.3905C169.226 88.1331 168.556 88.0044 167.764 88.0044H164.297V101.368H163.079V86.9551ZM171.982 101.368L168.249 94.924L169.556 94.9141L173.28 101.24V101.368H171.982Z" fill="white"/>
<path d="M177.221 86.9551V101.368H176.003V86.9551H177.221ZM186.134 86.9551L179.915 93.5579L176.785 96.6366L176.666 95.2804L179.182 92.667L184.609 86.9551H186.134ZM185.124 101.368L179.053 93.9638L179.786 92.9838L186.599 101.368H185.124Z" fill="white"/>
<path d="M196.978 97.8245C196.978 97.4285 196.912 97.0755 196.78 96.7653C196.648 96.4551 196.43 96.1779 196.126 95.9337C195.829 95.683 195.426 95.452 194.918 95.2408C194.416 95.023 193.789 94.8085 193.036 94.5973C192.317 94.3928 191.666 94.1684 191.085 93.9242C190.504 93.68 190.006 93.3995 189.59 93.0828C189.181 92.766 188.867 92.3964 188.649 91.974C188.431 91.5451 188.322 91.0468 188.322 90.4793C188.322 89.9249 188.441 89.42 188.679 88.9647C188.917 88.5093 189.25 88.1166 189.679 87.7867C190.115 87.4567 190.627 87.2026 191.214 87.0244C191.808 86.8462 192.459 86.7571 193.165 86.7571C194.175 86.7571 195.047 86.9485 195.78 87.3313C196.519 87.7141 197.09 88.2321 197.493 88.8855C197.902 89.5322 198.107 90.2582 198.107 91.0633H196.889C196.889 90.4364 196.74 89.8787 196.443 89.3903C196.153 88.8954 195.73 88.5093 195.175 88.2321C194.628 87.9483 193.957 87.8065 193.165 87.8065C192.373 87.8065 191.706 87.9285 191.165 88.1727C190.63 88.4103 190.224 88.7304 189.947 89.133C189.676 89.5289 189.541 89.9711 189.541 90.4595C189.541 90.8026 189.607 91.1194 189.739 91.4098C189.871 91.6936 190.085 91.9608 190.382 92.2116C190.686 92.4558 191.085 92.6868 191.581 92.9046C192.076 93.1158 192.686 93.317 193.413 93.5084C194.179 93.7196 194.859 93.9539 195.453 94.2113C196.047 94.4687 196.549 94.7656 196.958 95.1022C197.367 95.4322 197.678 95.8183 197.889 96.2604C198.1 96.7026 198.206 97.2173 198.206 97.8047C198.206 98.3921 198.08 98.92 197.83 99.3886C197.585 99.8506 197.239 100.243 196.79 100.567C196.347 100.89 195.822 101.137 195.215 101.309C194.614 101.481 193.957 101.566 193.244 101.566C192.604 101.566 191.967 101.484 191.333 101.319C190.699 101.154 190.118 100.9 189.59 100.557C189.069 100.207 188.649 99.7582 188.332 99.2104C188.022 98.6626 187.867 98.0093 187.867 97.2503H189.075C189.075 97.8575 189.197 98.369 189.442 98.7847C189.686 99.2005 190.009 99.5371 190.412 99.7945C190.821 100.052 191.27 100.24 191.759 100.359C192.254 100.471 192.749 100.527 193.244 100.527C194.004 100.527 194.661 100.415 195.215 100.19C195.776 99.966 196.209 99.6526 196.512 99.25C196.823 98.8408 196.978 98.3657 196.978 97.8245Z" fill="white"/>
<path d="M210.535 93.4193V94.4588H201.771V93.4193H210.535ZM202.058 86.9551V101.368H200.84V86.9551H202.058ZM211.516 86.9551V101.368H210.298V86.9551H211.516Z" fill="white"/>
<path d="M225.846 93.3896V94.9339C225.846 95.9436 225.714 96.8577 225.449 97.676C225.192 98.4878 224.816 99.184 224.32 99.7648C223.832 100.346 223.244 100.791 222.558 101.101C221.871 101.411 221.099 101.566 220.24 101.566C219.402 101.566 218.636 101.411 217.943 101.101C217.256 100.791 216.665 100.346 216.17 99.7648C215.675 99.184 215.292 98.4878 215.021 97.676C214.751 96.8577 214.615 95.9436 214.615 94.9339V93.3896C214.615 92.3799 214.747 91.4692 215.012 90.6574C215.282 89.8391 215.665 89.1396 216.16 88.5588C216.655 87.978 217.246 87.5326 217.933 87.2224C218.62 86.9122 219.382 86.7571 220.221 86.7571C221.079 86.7571 221.851 86.9122 222.538 87.2224C223.225 87.5326 223.815 87.978 224.311 88.5588C224.806 89.1396 225.185 89.8391 225.449 90.6574C225.714 91.4692 225.846 92.3799 225.846 93.3896ZM224.637 94.9339V93.3698C224.637 92.5185 224.538 91.753 224.34 91.0732C224.149 90.3935 223.862 89.8127 223.479 89.3309C223.102 88.8492 222.64 88.4796 222.092 88.2222C221.544 87.9648 220.92 87.8361 220.221 87.8361C219.541 87.8361 218.93 87.9648 218.389 88.2222C217.847 88.4796 217.385 88.8492 217.002 89.3309C216.626 89.8127 216.335 90.3935 216.131 91.0732C215.933 91.753 215.833 92.5185 215.833 93.3698V94.9339C215.833 95.7919 215.933 96.564 216.131 97.2503C216.335 97.9301 216.629 98.5142 217.012 99.0025C217.395 99.4843 217.857 99.8539 218.398 100.111C218.946 100.369 219.56 100.497 220.24 100.497C220.947 100.497 221.571 100.369 222.112 100.111C222.653 99.8539 223.112 99.4843 223.489 99.0025C223.865 98.5142 224.149 97.9301 224.34 97.2503C224.538 96.564 224.637 95.7919 224.637 94.9339Z" fill="white"/>
<path d="M233.828 95.4982H229.718V94.4588H233.828C234.686 94.4588 235.382 94.3202 235.917 94.043C236.458 93.7592 236.851 93.3764 237.096 92.8947C237.346 92.4129 237.472 91.8717 237.472 91.2712C237.472 90.6838 237.346 90.1427 237.096 89.6477C236.851 89.1528 236.458 88.7568 235.917 88.4598C235.382 88.1562 234.686 88.0044 233.828 88.0044H230.144V101.368H228.925V86.9551H233.828C234.884 86.9551 235.772 87.1366 236.491 87.4996C237.218 87.8625 237.766 88.3674 238.135 89.0142C238.505 89.6609 238.69 90.4067 238.69 91.2514C238.69 92.1357 238.505 92.898 238.135 93.5381C237.766 94.1717 237.221 94.6567 236.501 94.9933C235.782 95.3299 234.89 95.4982 233.828 95.4982Z" fill="white"/>
</svg>
