<svg width="85" height="74" viewBox="0 0 85 74" fill="none" xmlns="http://www.w3.org/2000/svg">
<path d="M0 73.6273C0.999116 72.543 2.05532 71.4872 3.02589 70.3458C12.2749 59.7879 21.5333 49.2205 30.8013 38.6435C31.0692 38.412 31.2474 38.0938 31.3048 37.7445C31.3622 37.3951 31.2951 37.0367 31.1153 36.7317C28.1656 29.9784 25.2538 23.1966 22.3802 16.3863C21.7236 14.8454 21.7236 14.8454 23.4079 14.8454C28.6889 14.8454 33.9699 14.8454 39.2795 14.8454C39.6666 14.7903 40.0605 14.8789 40.3866 15.0945C40.7128 15.3101 40.9486 15.6377 41.0494 16.0153C41.8772 18.184 42.8478 20.3241 43.7327 22.4928C44.0753 23.2917 44.218 23.3203 44.7889 22.6925L55.8078 10.0801C55.9869 9.8372 56.2252 9.64416 56.5 9.5193C56.7748 9.39444 57.077 9.3419 57.3778 9.3667H63.4296H64.3145C64.2115 9.59368 64.0769 9.80502 63.9149 9.99447C56.1693 18.8593 48.4143 27.7242 40.6497 36.589L12.1036 69.1473C10.8761 70.5456 9.6486 72.0008 8.44967 73.3705C8.27993 73.5731 8.06485 73.733 7.82185 73.8371C7.57885 73.9412 7.31474 73.9866 7.0509 73.9697H0.799293C0.533645 73.9948 0.266759 74.0043 0 73.9983L0 73.6273Z" fill="#F3EFF5"/>
<path d="M20.2896 64.2096L20.7463 63.5248L44.8107 36.1028L61.4531 17.0985C66.1347 11.7339 70.8448 6.36937 75.4978 1.00481C75.7463 0.669483 76.0754 0.402191 76.4546 0.227629C76.8338 0.0530676 77.2509 -0.0231266 77.6673 0.00609367C79.4657 0.00609367 81.2356 0.00609367 83.034 0.00609367H84.0331L82.8056 1.46137L67.7047 18.7535C65.0214 21.7782 62.3951 24.8315 59.7403 27.8562C59.5732 28.008 59.4624 28.212 59.4262 28.4348C59.3899 28.6576 59.4302 28.8862 59.5405 29.0832L68.1044 49.0576C68.4184 49.771 68.3327 49.9137 67.5905 49.9137H50.7483C50.5124 49.9175 50.2816 49.8444 50.091 49.7054C49.9004 49.5663 49.7604 49.369 49.6921 49.1432C48.9213 47.2884 48.0935 45.4337 47.2942 43.4362C46.9517 42.6372 46.6091 42.6087 46.0382 43.265L35.3619 55.6492L28.7678 63.3251C28.569 63.5859 28.3083 63.7929 28.0092 63.9275C27.7101 64.062 27.3821 64.1198 27.055 64.0955C25.1424 64.0955 23.2013 64.0955 21.3458 64.0955L20.2896 64.2096Z" fill="#72B01D"/>
</svg>
